<svg xmlns="http://www.w3.org/2000/svg" xmlns:xlink="http://www.w3.org/1999/xlink" width="1080" zoomAndPan="magnify" viewBox="0 0 810 809.999993" height="1080" preserveAspectRatio="xMidYMid meet" version="1.0"><defs><g/></defs><g fill="#ff00ff" fill-opacity="1"><g transform="translate(46.754773, 570.749242)"><g><path d="M 246.015625 -239.625 L 67.625 -157.625 L 246.015625 -76.140625 L 246.015625 -46.859375 L 37.28125 -143.78125 L 37.28125 -172 L 246.015625 -268.90625 Z M 246.015625 -239.625 "/></g></g></g><g fill="#ff00ff" fill-opacity="1"><g transform="translate(330.048284, 570.749242)"><g><path d="M 28.75 39.40625 L 7.984375 39.40625 L 140.578125 -345.0625 L 161.875 -345.0625 Z M 28.75 39.40625 "/></g></g></g><g fill="#ff00ff" fill-opacity="1"><g transform="translate(499.917898, 570.749242)"><g><path d="M 37.28125 -76.140625 L 215.125 -157.625 L 37.28125 -239.625 L 37.28125 -268.90625 L 246.015625 -172 L 246.015625 -143.78125 L 37.28125 -46.859375 Z M 37.28125 -76.140625 "/></g></g></g><g fill="#00ffff" fill-opacity="1"><g transform="translate(26.785741, 570.749242)"><g><path d="M 246.015625 -239.625 L 67.625 -157.625 L 246.015625 -76.140625 L 246.015625 -46.859375 L 37.28125 -143.78125 L 37.28125 -172 L 246.015625 -268.90625 Z M 246.015625 -239.625 "/></g></g></g><g fill="#00ffff" fill-opacity="1"><g transform="translate(310.079252, 570.749242)"><g><path d="M 28.75 39.40625 L 7.984375 39.40625 L 140.578125 -345.0625 L 161.875 -345.0625 Z M 28.75 39.40625 "/></g></g></g><g fill="#00ffff" fill-opacity="1"><g transform="translate(479.948866, 570.749242)"><g><path d="M 37.28125 -76.140625 L 215.125 -157.625 L 37.28125 -239.625 L 37.28125 -268.90625 L 246.015625 -172 L 246.015625 -143.78125 L 37.28125 -46.859375 Z M 37.28125 -76.140625 "/></g></g></g><g fill="#3541d9" fill-opacity="1"><g transform="translate(36.770257, 570.749242)"><g><path d="M 246.015625 -239.625 L 67.625 -157.625 L 246.015625 -76.140625 L 246.015625 -46.859375 L 37.28125 -143.78125 L 37.28125 -172 L 246.015625 -268.90625 Z M 246.015625 -239.625 "/></g></g></g><g fill="#3541d9" fill-opacity="1"><g transform="translate(320.063767, 570.749242)"><g><path d="M 28.75 39.40625 L 7.984375 39.40625 L 140.578125 -345.0625 L 161.875 -345.0625 Z M 28.75 39.40625 "/></g></g></g><g fill="#3541d9" fill-opacity="1"><g transform="translate(489.933381, 570.749242)"><g><path d="M 37.28125 -76.140625 L 215.125 -157.625 L 37.28125 -239.625 L 37.28125 -268.90625 L 246.015625 -172 L 246.015625 -143.78125 L 37.28125 -46.859375 Z M 37.28125 -76.140625 "/></g></g></g></svg>